HIERARCHY
ROOT Hips
{
 OFFSET 0.000000 0.000000 0.000000
 CHANNELS 6 Xposition Yposition Zposition Yrotation Xrotation Zrotation
 JOINT Chest
 {
  OFFSET 0.000000 9.585900 0.002600
  CHANNELS 3 Yrotation Xrotation Zrotation
  JOINT Chest2
  {
   OFFSET 0.000000 9.601200 -0.005300
   CHANNELS 3 Yrotation Xrotation Zrotation
   JOINT Chest3
   {
    OFFSET 0.000000 9.561800 0.000000
    CHANNELS 3 Yrotation Xrotation Zrotation
    JOINT Chest4
    {
     OFFSET 0.000000 9.552100 0.000000
     CHANNELS 3 Yrotation Xrotation Zrotation
     JOINT Neck
     {
      OFFSET 0.000000 14.453000 0.000000
      CHANNELS 3 Yrotation Xrotation Zrotation
      JOINT Head
      {
       OFFSET 0.000000 8.936500 -0.011300
       CHANNELS 3 Yrotation Xrotation Zrotation
       End Site
       {
        OFFSET 0.000000 17.073600 -0.006000
       }
      }
     }
     JOINT RightCollar
     {
      OFFSET -2.921100 9.558500 0.000000
      CHANNELS 3 Yrotation Xrotation Zrotation
      JOINT RightShoulder
      {
       OFFSET -13.519700 0.000000 0.000000
       CHANNELS 3 Yrotation Xrotation Zrotation
       JOINT RightElbow
       {
        OFFSET 0.000000 -29.696600 0.000000
        CHANNELS 3 Yrotation Xrotation Zrotation
        JOINT RightWrist
        {
         OFFSET 0.000000 -24.004700 0.000000
         CHANNELS 3 Yrotation Xrotation Zrotation
         End Site
         {
          OFFSET 0.000000 -17.728500 0.000000
         }
        }
       }
      }
     }
     JOINT LeftCollar
     {
      OFFSET 2.921100 9.558500 0.000000
      CHANNELS 3 Yrotation Xrotation Zrotation
      JOINT LeftShoulder
      {
       OFFSET 13.519700 0.000000 0.000000
       CHANNELS 3 Yrotation Xrotation Zrotation
       JOINT LeftElbow
       {
        OFFSET 0.000000 -29.696600 0.000000
        CHANNELS 3 Yrotation Xrotation Zrotation
        JOINT LeftWrist
        {
         OFFSET 0.000000 -24.004700 0.000000
         CHANNELS 3 Yrotation Xrotation Zrotation
         End Site
         {
          OFFSET 0.000000 -17.728500 0.000000
         }
        }
       }
      }
     }
    }
   }
  }
 }
 JOINT RightHip
 {
  OFFSET -7.771700 -0.012900 -0.001300
  CHANNELS 3 Yrotation Xrotation Zrotation
  JOINT RightKnee
  {
   OFFSET 0.000000 -40.869800 0.001200
   CHANNELS 3 Yrotation Xrotation Zrotation
   JOINT RightAnkle
   {
    OFFSET 0.000000 -39.717900 0.002100
    CHANNELS 3 Yrotation Xrotation Zrotation
    JOINT RightToe
    {
     OFFSET 0.000000 -4.965400 11.033500
     CHANNELS 3 Yrotation Xrotation Zrotation
     End Site
     {
      OFFSET 0.000000 -1.423100 5.872300
     }
    }
   }
  }
 }
 JOINT LeftHip
 {
  OFFSET 7.771700 -0.012900 -0.001300
  CHANNELS 3 Yrotation Xrotation Zrotation
  JOINT LeftKnee
  {
   OFFSET 0.000000 -40.869800 0.001200
   CHANNELS 3 Yrotation Xrotation Zrotation
   JOINT LeftAnkle
   {
    OFFSET 0.000000 -39.717900 0.002100
    CHANNELS 3 Yrotation Xrotation Zrotation
    JOINT LeftToe
    {
     OFFSET 0.000000 -4.965400 11.033500
     CHANNELS 3 Yrotation Xrotation Zrotation
     End Site
     {
      OFFSET 0.000000 -1.423100 5.872300
     }
    }
   }
  }
 }
}
MOTION
Frames: 9
Frame Time: 0.008333
-206.576417 49.300759 8.259280 174.233152 -31.053680 -3.851193 0.827474 19.351557 2.484403 0.053160 2.327917 0.230169 0.120886 3.833408 0.379751 0.661443 16.735488 1.755882 4.331558 16.624837 -2.001874 8.677806 -4.651944 -5.194432 -0.589593 -4.236048 -2.898742 6.176307 -12.422651 -13.852733 -38.259858 -47.278179 91.979927 1.390974 -2.310623 -17.012819 -1.486950 -2.913022 2.495947 -5.621129 -5.274318 13.170221 71.254398 -66.473555 -109.956194 6.523489 1.793261 7.609308 -6.032355 -53.014344 -2.247020 -154.286979 81.597914 -140.982495 -30.192896 -3.958193 -3.309923 -0.026426 -13.629487 -0.437447 -19.068866 -54.567533 22.988064 -74.287465 68.020905 -78.449409 30.417167 8.550343 11.936106 0.046362 -0.455449 0.004895
-206.571895 49.300206 8.262287 174.226127 -31.060057 -3.847250 0.796762 19.359787 2.477524 0.077198 2.327038 0.224649 0.093245 3.839068 0.383880 0.674949 16.738635 1.748281 4.325529 16.618787 -2.006598 8.707274 -4.657176 -5.211460 -0.610989 -4.253954 -2.880596 6.213175 -12.410663 -13.876840 -38.288179 -47.317628 92.000687 1.419770 -2.288139 -16.999543 -1.468845 -2.915979 2.490848 -5.608379 -5.254452 13.152634 71.276367 -66.487591 -109.978958 6.521232 1.771813 7.610129 -6.041977 -53.009568 -2.235425 -154.238336 81.595439 -140.937734 -30.187496 -3.962782 -3.313000 -0.027082 -13.626305 -0.441223 -19.094556 -54.556895 23.003657 -74.278740 68.029349 -78.444407 30.420998 8.561265 11.924574 0.043199 -0.460059 0.003918
-206.566167 49.300046 8.265665 174.219183 -31.066499 -3.851445 0.798698 19.367084 2.485916 0.055616 2.334048 0.231227 0.106484 3.838990 0.378419 0.669035 16.744158 1.745279 4.331723 16.611644 -2.012645 8.717847 -4.663204 -5.220828 -0.606648 -4.267953 -2.880088 6.216260 -12.407241 -13.887083 -38.337563 -47.413689 92.019691 1.409458 -2.251476 -16.968543 -1.453235 -2.923577 2.483590 -5.596970 -5.236146 13.137948 71.291794 -66.500095 -109.996264 6.518283 1.751585 7.611868 -6.062645 -53.001411 -2.214074 -154.203675 81.599086 -140.900199 -30.187738 -3.968713 -3.320645 -0.020073 -13.624449 -0.447126 -19.118910 -54.546609 23.025678 -74.282636 68.038146 -78.443118 30.414380 8.569881 11.905485 0.047049 -0.460878 0.007734
-206.560402 49.299670 8.270301 174.211429 -31.066406 -3.857850 0.802243 19.368540 2.497061 0.055612 2.335442 0.231165 0.100427 3.844765 0.381565 0.663639 16.749506 1.744493 4.337374 16.604799 -2.019060 8.727255 -4.677250 -5.235080 -0.601221 -4.280982 -2.881908 6.169511 -12.400966 -13.900365 -38.333786 -47.461756 92.057877 1.426857 -2.237728 -16.950638 -1.439104 -2.926890 2.472045 -5.590337 -5.223869 13.129465 71.267680 -66.499290 -109.967427 6.514248 1.711872 7.629370 -6.088427 -52.998265 -2.192674 -154.241423 81.612188 -140.926416 -30.200322 -3.976344 -3.335418 -0.008436 -13.624546 -0.454475 -19.143012 -54.542619 23.051363 -74.280188 68.044415 -78.432289 30.410462 8.582251 11.888628 0.049059 -0.462171 0.011821
-206.556875 49.299856 8.274405 174.205307 -31.070602 -3.853818 0.795487 19.378421 2.496730 0.061023 2.333631 0.228991 0.100681 3.845359 0.382111 0.657059 16.754683 1.746387 4.341361 16.602526 -2.022249 8.748095 -4.692314 -5.254532 -0.595527 -4.288697 -2.881616 6.152743 -12.397980 -13.909925 -38.332445 -47.485727 92.071414 1.459770 -2.232526 -16.937569 -1.428132 -2.934466 2.463244 -5.589204 -5.204384 13.121631 71.268612 -66.501620 -109.966258 6.543568 1.710868 7.712251 -6.097884 -52.993284 -2.191356 -154.265115 81.621159 -140.946812 -30.199831 -3.977689 -3.341252 -0.008036 -13.626436 -0.462728 -19.140905 -54.538647 23.051160 -74.272118 68.045901 -78.421287 30.415873 8.589903 11.887862 0.043274 -0.464236 0.010241
-206.554030 49.300666 8.278238 174.199097 -31.079482 -3.848183 0.785456 19.392685 2.500246 0.063144 2.335368 0.226805 0.107094 3.841926 0.376340 0.657093 16.754114 1.744234 4.343077 16.606884 -2.018315 8.758915 -4.699308 -5.264449 -0.594109 -4.289735 -2.876795 6.146320 -12.397016 -13.917550 -38.337824 -47.505720 92.076354 1.465981 -2.226768 -16.925770 -1.430072 -2.931791 2.460318 -5.584820 -5.188774 13.113142 71.267562 -66.506829 -109.959347 6.544600 1.722981 7.757565 -6.097346 -52.984635 -2.197429 -154.300113 81.631461 -140.976270 -30.203641 -3.973703 -3.348918 -0.007900 -13.631857 -0.467642 -19.131358 -54.530648 23.044259 -74.263695 68.047513 -78.410248 30.418777 8.596340 11.888866 0.039324 -0.466759 0.006963
-206.551478 49.301680 8.282537 174.186525 -31.089115 -3.840246 0.788211 19.401920 2.501318 0.067257 2.337541 0.223901 0.098160 3.851094 0.384093 0.656541 16.756804 1.739109 4.351499 16.601145 -2.020922 8.764924 -4.704805 -5.271921 -0.584836 -4.303115 -2.880531 6.139750 -12.395434 -13.921944 -38.334450 -47.545389 92.064235 1.473196 -2.226526 -16.903108 -1.417978 -2.934666 2.450121 -5.589083 -5.182960 13.107118 71.260553 -66.514231 -109.940921 6.543036 1.741996 7.798099 -6.085385 -52.976010 -2.203143 -154.334102 81.643152 -141.002015 -30.214358 -3.970798 -3.359756 -0.002078 -13.633848 -0.469315 -19.117418 -54.524472 23.036028 -74.263077 68.051933 -78.408691 30.430302 8.601966 11.896028 0.028992 -0.470989 0.002064
-206.550816 49.302129 8.288092 174.178697 -31.091978 -3.826061 0.784511 19.403254 2.492417 0.066512 2.341360 0.225546 0.103269 3.850035 0.379660 0.654402 16.765428 1.746625 4.354901 16.600057 -2.024895 8.764645 -4.711158 -5.278910 -0.580705 -4.314119 -2.887228 6.128266 -12.392901 -13.919007 -38.323170 -47.581562 92.048681 1.469942 -2.226345 -16.886942 -1.413424 -2.942587 2.442758 -5.590585 -5.179385 13.101596 71.226040 -66.516060 -109.894493 6.538495 1.760497 7.830275 -6.074627 -52.976530 -2.220657 -154.412037 81.659693 -141.074563 -30.225989 -3.965816 -3.371842 0.005077 -13.637940 -0.472501 -19.093854 -54.526240 23.015694 -74.241509 68.047677 -78.388071 30.449588 8.613338 11.910689 0.013847 -0.477026 -0.002464
-206.550730 49.301886 8.295232 174.182304 -31.086341 -3.816317 0.774421 19.397291 2.480592 0.055948 2.341222 0.231594 0.107457 3.852805 0.377776 0.656740 16.779001 1.748341 4.361216 16.595544 -2.030560 8.771027 -4.713400 -5.280247 -0.576586 -4.331060 -2.891037 6.139998 -12.374534 -13.910584 -38.312166 -47.621759 92.022608 1.456104 -2.239384 -16.882658 -1.409137 -2.956128 2.438321 -5.588194 -5.162268 13.085653 71.221036 -66.530777 -109.881439 6.534308 1.783998 7.858476 -6.078308 -52.983923 -2.233539 -154.479600 81.675254 -141.139016 -30.239654 -3.964284 -3.385826 0.015393 -13.639019 -0.474829 -19.076438 -54.534926 22.991210 -74.196756 68.045695 -78.341553 30.471401 8.626294 11.933629 -0.006907 -0.480782 -0.009004
